# xmcd
#
# Track frame offsets:
#	150
#	18183
#	35186
#	53498
#	67162
#	83677
#	99329
#	113202
#	130728
#	148233
#	166304
#	183223
#	196015
#	210822
#	226073
#	242732
#	258585
#	275139
#	280978
#	299524
#	315616
#	332685
#	344936
#
# Disc length: 4654 seconds
#
# Revision: 0
# Processed by: cddbd v1.5.1PL0 Copyright (c) Steve Scherf et al.
# Submitted via: EasyCDDAExtractor 8.0.1.1
#
DISCID=59122c17
DTITLE=Various Artist - CDX Vol 371
DYEAR=2005
DGENRE=Country
TTITLE0=Trace Adkins - Arlington
TTITLE1=Toby Keith - As Good As I Once Was
TTITLE2=Gary Allan - Gary Allan
TTITLE3=Erika Jo - I Break Things
TTITLE4=Dwight Yoakam - Intentional Heartache
TTITLE5=Bruce Long - It's Only Monday
TTITLE6=Shelly Fairchild - Kiss Me
TTITLE7=Faith Hill - Mississippi Girl
TTITLE8=Chris Cagle - Miss Me Baby
TTITLE9=Jeffery Steele - She Must Be So Happy
TTITLE10=Andy Griggs - This I Gotta See
TTITLE11=David Ball - Too Much Blood In My Alcohol Level
TTITLE12=Lonestar - You're Like Comin' Home
TTITLE13=Chris Gray - I Keep It Under My Hat
TTITLE14=Magnolia - Just Like The Movies
TTITLE15=Kimberlee Styles - Must've Missed That Train
TTITLE16=Craig Sellers - Something Worth Fighting For
TTITLE17=Trace Adkins - Spoken Intro To Arlington
TTITLE18=Trace Adkins - Arlington Album Ver
TTITLE19=Tim Aaron - Read My Heart
TTITLE20=Rhonda Towers - I Wanna Be Loved By You
TTITLE21=Poobah - Methamphetamine
TTITLE22=Roxie Dean Jamie O'Neal - Lymphatic PSA
EXTD=
EXTT0=
EXTT1=
EXTT2=
EXTT3=
EXTT4=
EXTT5=
EXTT6=
EXTT7=
EXTT8=
EXTT9=
EXTT10=
EXTT11=
EXTT12=
EXTT13=
EXTT14=
EXTT15=
EXTT16=
EXTT17=
EXTT18=
EXTT19=
EXTT20=
EXTT21=
EXTT22=
PLAYORDER=
